<svg width="48" height="48" viewBox="0 0 48 48" fill="none" xmlns="http://www.w3.org/2000/svg">
<rect width="48" height="48" rx="24" fill="#0EB6B6"/>
<path d="M22.0376 17.3162L22.6866 18.4791C23.2723 19.5286 23.0372 20.9053 22.1147 21.8278C22.1147 21.8278 22.1147 21.8278 22.1147 21.8278C22.1146 21.8279 20.9959 22.9468 23.0245 24.9755C25.0525 27.0035 26.1714 25.8861 26.1722 25.8853C26.1722 25.8853 26.1722 25.8853 26.1722 25.8853C27.0947 24.9628 28.4714 24.7277 29.5209 25.3134L30.6838 25.9624C32.2686 26.8468 32.4557 29.0692 31.0628 30.4622C30.2258 31.2992 29.2004 31.9505 28.0669 31.9934C26.1588 32.0658 22.9183 31.5829 19.6677 28.3323C16.4171 25.0817 15.9342 21.8412 16.0066 19.9331C16.0495 18.7996 16.7008 17.7742 17.5378 16.9372C18.9308 15.5443 21.1532 15.7314 22.0376 17.3162Z" fill="#FDFDFD"/>
</svg>
