<svg width="48" height="48" viewBox="0 0 48 48" fill="none" xmlns="http://www.w3.org/2000/svg">
<rect width="48" height="48" rx="24" fill="#FDFDFD"/>
<path fill-rule="evenodd" clip-rule="evenodd" d="M24 0C10.7452 0 0 10.7452 0 24C0 37.2548 10.7452 48 24 48C37.2548 48 48 37.2548 48 24C48 10.7452 37.2548 0 24 0ZM18.7225 11.2766C20.0878 11.2144 20.5241 11.1992 24.0004 11.1992H23.9964C27.4738 11.1992 27.9085 11.2144 29.2738 11.2766C30.6365 11.339 31.5672 11.5547 32.3832 11.8712C33.2258 12.1979 33.9379 12.6352 34.6499 13.3472C35.3619 14.0587 35.7992 14.7729 36.1272 15.6147C36.4419 16.4286 36.6579 17.3587 36.7219 18.7214C36.7832 20.0868 36.7992 20.5231 36.7992 23.9994C36.7992 27.4757 36.7832 27.9109 36.7219 29.2762C36.6579 30.6384 36.4419 31.5688 36.1272 32.3829C35.7992 33.2245 35.3619 33.9387 34.6499 34.6501C33.9387 35.3621 33.2256 35.8005 32.384 36.1275C31.5696 36.444 30.6384 36.6598 29.2757 36.7222C27.9103 36.7843 27.4754 36.7995 23.9988 36.7995C20.5228 36.7995 20.0868 36.7843 18.7214 36.7222C17.359 36.6598 16.4286 36.444 15.6142 36.1275C14.7729 35.8005 14.0587 35.3621 13.3475 34.6501C12.6358 33.9387 12.1984 33.2245 11.8712 32.3826C11.555 31.5688 11.3392 30.6386 11.2766 29.2759C11.2147 27.9106 11.1992 27.4757 11.1992 23.9994C11.1992 20.5231 11.2152 20.0865 11.2763 18.7212C11.3376 17.359 11.5536 16.4286 11.871 15.6145C12.199 14.7729 12.6363 14.0587 13.3483 13.3472C14.0598 12.6355 14.7739 12.1982 15.6158 11.8712C16.4297 11.5547 17.3598 11.339 18.7225 11.2766Z" fill="#0EB6B6"/>
<path fill-rule="evenodd" clip-rule="evenodd" d="M22.853 13.5071C23.0759 13.5068 23.3158 13.5069 23.5746 13.507L24.0013 13.5071C27.4189 13.5071 27.824 13.5194 29.1736 13.5807C30.4216 13.6378 31.0989 13.8463 31.5501 14.0215C32.1475 14.2535 32.5733 14.5309 33.0211 14.9789C33.4691 15.4269 33.7464 15.8535 33.979 16.4509C34.1542 16.9015 34.363 17.5789 34.4198 18.8269C34.4811 20.1762 34.4944 20.5816 34.4944 23.9976C34.4944 27.4137 34.4811 27.819 34.4198 29.1683C34.3627 30.4163 34.1542 31.0937 33.979 31.5444C33.747 32.1417 33.4691 32.567 33.0211 33.0148C32.5731 33.4628 32.1477 33.7401 31.5501 33.9721C31.0995 34.1481 30.4216 34.3561 29.1736 34.4132C27.8242 34.4745 27.4189 34.4879 24.0013 34.4879C20.5834 34.4879 20.1783 34.4745 18.8289 34.4132C17.5809 34.3556 16.9036 34.1471 16.4521 33.9719C15.8548 33.7399 15.4281 33.4625 14.9801 33.0145C14.5321 32.5665 14.2548 32.1409 14.0222 31.5433C13.847 31.0926 13.6382 30.4153 13.5814 29.1673C13.5201 27.8179 13.5078 27.4126 13.5078 23.9944C13.5078 20.5762 13.5201 20.173 13.5814 18.8237C13.6385 17.5757 13.847 16.8983 14.0222 16.4471C14.2542 15.8498 14.5321 15.4231 14.9801 14.9751C15.4281 14.5271 15.8548 14.2498 16.4521 14.0172C16.9033 13.8412 17.5809 13.6332 18.8289 13.5759C20.0097 13.5226 20.4674 13.5066 22.853 13.5039V13.5071ZM30.8329 15.6333C29.9849 15.6333 29.2969 16.3206 29.2969 17.1688C29.2969 18.0168 29.9849 18.7048 30.8329 18.7048C31.6809 18.7048 32.3689 18.0168 32.3689 17.1688C32.3689 16.3208 31.6809 15.6328 30.8329 15.6328V15.6333ZM17.4277 24.0011C17.4277 20.3711 20.3708 17.4279 24.0009 17.4277C27.631 17.4277 30.5735 20.371 30.5735 24.0011C30.5735 27.6313 27.6313 30.5732 24.0011 30.5732C20.371 30.5732 17.4277 27.6313 17.4277 24.0011Z" fill="#0EB6B6"/>
<path d="M24.0011 19.7344C26.3574 19.7344 28.2678 21.6445 28.2678 24.0011C28.2678 26.3574 26.3574 28.2678 24.0011 28.2678C21.6445 28.2678 19.7344 26.3574 19.7344 24.0011C19.7344 21.6445 21.6445 19.7344 24.0011 19.7344Z" fill="#0EB6B6"/>
</svg>
