<svg width="48" height="48" viewBox="0 0 48 48" fill="none" xmlns="http://www.w3.org/2000/svg">
<rect width="48" height="48" rx="24" fill="#FDFDFD"/>
<path fill-rule="evenodd" clip-rule="evenodd" d="M0 24C0 37.2548 10.7452 48 24 48C37.2548 48 48 37.2548 48 24C48 10.7452 37.2548 0 24 0C10.7452 0 0 10.7452 0 24ZM19.5994 35.0005L20.0078 28.8827L20.0075 28.8825L31.1364 18.8395C31.6248 18.406 31.0297 18.1946 30.3813 18.5878L16.6467 27.2528L10.7141 25.4011C9.43295 25.0089 9.42375 24.1285 11.0018 23.4955L34.1198 14.5813C35.1756 14.102 36.1947 14.8349 35.7916 16.451L31.8547 35.0036C31.5797 36.322 30.7831 36.6373 29.6794 36.0283L23.6822 31.5974L20.7994 34.4005C20.7904 34.4093 20.7813 34.4181 20.7723 34.4269C20.4499 34.7408 20.1832 35.0005 19.5994 35.0005Z" fill="#0EB6B6"/>
</svg>
