<svg width="48" height="48" viewBox="0 0 48 48" fill="none" xmlns="http://www.w3.org/2000/svg">
<rect width="48" height="48" rx="24" fill="#0EB6B6"/>
<g clip-path="url(#clip0_7122_9328)">
<path d="M25.4365 30.2761C26.4246 28.414 29.7182 28.414 29.7182 28.414C33.1502 28.3782 33.6138 26.2944 33.9237 25.2412C33.369 29.7226 29.8494 33.2849 25.3885 33.9046C25.0659 33.2256 24.6837 31.6945 25.4365 30.2761Z" fill="#FDFDFD"/>
<path d="M17.006 17.8339L16.5944 17.4818C16.5601 17.4525 16.5273 17.4218 16.4961 17.3898C14.9425 19.1521 14 21.466 14 24C14 29.4608 18.3771 33.8992 23.8142 33.9983C23.4608 32.9435 23.2302 31.234 24.1116 29.5732C24.9217 28.0465 26.5516 27.4456 27.5899 27.1903C28.1567 27.051 28.6778 26.9831 29.0542 26.9493C29.2442 26.9323 29.4018 26.9235 29.5156 26.919C29.5726 26.9168 29.6189 26.9156 29.6531 26.9149L29.6952 26.9143L29.7064 26.9143C31.0872 26.8991 31.6231 26.4916 31.8704 26.2132C32.1763 25.8688 32.2962 25.4605 32.4632 24.8917L32.4849 24.818C32.683 24.1447 33.3156 23.7093 33.9968 23.743C33.934 21.2535 32.9613 18.99 31.3989 17.2727C31.3673 17.4504 31.3297 17.6156 31.2921 17.7618C31.1225 18.4234 30.8378 19.1372 30.4884 19.6674C30.1465 20.1863 29.5392 20.6499 29.1355 20.94C28.8308 21.1589 28.5194 21.3408 28.2628 21.4887L28.1707 21.5417C27.939 21.675 27.7548 21.7811 27.5794 21.897C27.2234 22.1322 27.0099 22.3411 26.8652 22.6241C26.9532 22.9464 27.0157 23.3168 27.0167 23.7041C27.0191 24.6256 26.5474 25.3537 25.9836 25.8081C25.4289 26.2551 24.7112 26.5078 23.984 26.4999C21.0342 26.4677 19.304 24.0613 19.0812 21.5816C19.0164 20.8606 18.692 20.0837 18.2388 19.3599C17.798 18.6559 17.2998 18.1047 17.006 17.8339Z" fill="#FDFDFD"/>
<path d="M20.5752 21.4474C20.3879 19.3632 18.7806 17.4211 18.0004 16.7105L17.5693 16.3419C19.3079 14.8804 21.5513 14 24.0004 14C26.2137 14 28.2592 14.7191 29.9158 15.9364C30.1498 16.647 29.704 18.1316 29.2359 18.8421C29.0663 19.0995 28.6818 19.419 28.2602 19.7219C27.3097 20.4048 26.1102 20.7425 25.5004 22C25.326 22.3595 25.3335 22.7108 25.4173 23.0163C25.4776 23.2358 25.5161 23.4745 25.5167 23.708C25.5187 24.4629 24.7552 25.0082 24.0004 25C22.0361 24.9786 20.7502 23.3955 20.5752 21.4474Z" fill="#FDFDFD"/>
</g>
<defs>
<clipPath id="clip0_7122_9328">
<rect width="24" height="24" fill="white" transform="translate(12 12)"/>
</clipPath>
</defs>
</svg>
