<svg width="48" height="48" viewBox="0 0 48 48" fill="none" xmlns="http://www.w3.org/2000/svg">
<rect width="48" height="48" rx="24" fill="#0EB6B6"/>
<path fill-rule="evenodd" clip-rule="evenodd" d="M15.1716 17.1716C14 18.3431 14 20.2288 14 24C14 27.7712 14 29.6569 15.1716 30.8284C16.3431 32 18.2288 32 22 32H26C29.7712 32 31.6569 32 32.8284 30.8284C34 29.6569 34 27.7712 34 24C34 20.2288 34 18.3431 32.8284 17.1716C31.6569 16 29.7712 16 26 16H22C18.2288 16 16.3431 16 15.1716 17.1716ZM30.5762 19.5199C30.8413 19.8381 30.7983 20.311 30.4801 20.5762L28.2837 22.4066C27.3973 23.1452 26.6789 23.7439 26.0448 24.1517C25.3843 24.5765 24.7411 24.8449 24 24.8449C23.2589 24.8449 22.6157 24.5765 21.9552 24.1517C21.3211 23.7439 20.6027 23.1452 19.7164 22.4066L17.5199 20.5762C17.2017 20.311 17.1587 19.8381 17.4238 19.5199C17.689 19.2017 18.1619 19.1587 18.4801 19.4238L20.639 21.2229C21.572 22.0004 22.2197 22.5384 22.7666 22.8901C23.2959 23.2306 23.6549 23.3449 24 23.3449C24.3451 23.3449 24.7041 23.2306 25.2334 22.8901C25.7803 22.5384 26.428 22.0004 27.361 21.2229L29.5199 19.4238C29.8381 19.1587 30.311 19.2017 30.5762 19.5199Z" fill="#FDFDFD"/>
</svg>
