<svg width="199" height="28" viewBox="0 0 199 28" fill="none" xmlns="http://www.w3.org/2000/svg">
<g clip-path="url(#clip0_7856_66)">
<path fill-rule="evenodd" clip-rule="evenodd" d="M16.7219 14.0615C16.7219 13.9788 16.6711 13.9042 16.5934 13.8727C16.5156 13.8411 16.4261 13.8587 16.3668 13.9173C15.4505 14.8219 13.0339 17.2074 12.4049 17.8284C12.3079 17.9241 12.2535 18.0536 12.2535 18.1887C12.2535 18.5121 12.2535 19.1644 12.2535 19.8415C12.2535 20.4238 12.4889 20.9823 12.9077 21.394C13.3267 21.8059 13.895 22.0372 14.4874 22.0372C14.4871 22.0372 14.4876 22.0372 14.4874 22.0372C15.0799 22.0372 15.6486 21.8059 16.0676 21.394C16.4865 20.9823 16.7219 20.4238 16.7219 19.8415C16.7219 17.8847 16.7219 15.165 16.7219 14.0615ZM0 14.0615C0 13.9788 0.050736 13.9042 0.128506 13.8727C0.206276 13.8411 0.29573 13.8587 0.355102 13.9173C1.27145 14.8219 3.68805 17.2074 4.31703 17.8284C4.41397 17.9241 4.4684 18.0536 4.4684 18.1887C4.4684 18.5121 4.4684 19.1644 4.4684 19.8415C4.4684 20.4238 4.23304 20.9823 3.81411 21.394C3.39516 21.8059 2.82696 22.0372 2.23448 22.0372C2.2343 22.0372 2.23465 22.0372 2.23448 22.0372C1.64199 22.0372 1.07326 21.8059 0.654308 21.394C0.235376 20.9823 0 20.4238 0 19.8415C0 17.8847 0 15.165 0 14.0615ZM0.616795 13.4034C-0.205591 12.595 -0.205591 11.2845 0.616795 10.4761C0.61676 10.4761 0.61683 10.4761 0.616795 10.4761C1.43919 9.66779 2.77262 9.66772 3.59501 10.4761C5.44454 12.294 8.35913 15.1588 8.35913 15.1588C8.35913 15.1588 11.2823 12.2855 13.1348 10.4648C13.9565 9.65707 15.2887 9.65707 16.1105 10.4648C16.1105 10.4647 16.1105 10.4648 16.1105 10.4648C16.9321 11.2724 16.9323 12.5819 16.1106 13.3896C14.421 15.0503 11.6749 17.7494 9.9448 19.4501C9.52361 19.864 8.95235 20.0966 8.35669 20.0966C7.76104 20.0966 7.18979 19.864 6.7686 19.4501C5.04184 17.7528 2.30366 15.0614 0.616795 13.4034ZM2.2446 4.88525C3.48193 4.88525 4.48646 5.87263 4.48646 7.0888C4.48646 8.30496 3.48193 9.29234 2.2446 9.29234C1.00729 9.29234 0.00274535 8.30496 0.00274535 7.0888C0.00274535 5.87263 1.00729 4.88525 2.2446 4.88525ZM14.4851 4.88525C15.7225 4.88525 16.727 5.87263 16.727 7.0888C16.727 8.30496 15.7225 9.29234 14.4851 9.29234C13.2479 9.29234 12.2433 8.30496 12.2433 7.0888C12.2433 5.87263 13.2479 4.88525 14.4851 4.88525Z" fill="#008593"/>
<path d="M28.9943 8.44824V19.6972H26.6718V8.44824H28.9943ZM32.8257 8.44824V10.1248H22.8828V8.44824H32.8257ZM35.5046 13.0452V19.6972H33.2667V11.3378H35.3858L35.5046 13.0452ZM38.2932 11.2837L38.2593 13.1843C38.1351 13.1636 37.9937 13.1482 37.8356 13.1379C37.6829 13.1276 37.5388 13.1224 37.4032 13.1224C37.0586 13.1224 36.7562 13.1662 36.4962 13.2538C36.2363 13.3362 36.0187 13.4572 35.8436 13.6169C35.6741 13.7766 35.5441 13.9723 35.4537 14.2041C35.3632 14.4307 35.3123 14.6882 35.3011 14.9767L34.8179 14.9226C34.8179 14.3921 34.8772 13.9002 34.9959 13.4469C35.1146 12.9937 35.2869 12.5971 35.5129 12.2571C35.7391 11.9172 36.0216 11.6545 36.3606 11.4691C36.7053 11.2785 37.1009 11.1832 37.5473 11.1832C37.6717 11.1832 37.8044 11.1935 37.9457 11.2141C38.0926 11.2296 38.2084 11.2528 38.2932 11.2837ZM44.6339 17.7117V11.3378H46.8886V19.6972H44.7696L44.6339 17.7117ZM44.9221 15.981L45.6172 15.9656C45.6172 16.527 45.5493 17.0446 45.4137 17.5185C45.2781 17.9923 45.0662 18.4044 44.7779 18.7547C44.4954 19.0998 44.1366 19.3701 43.7014 19.5659C43.2663 19.7565 42.7522 19.8517 42.1588 19.8517C41.7067 19.8517 41.2942 19.7951 40.9212 19.6817C40.5483 19.5634 40.2262 19.3805 39.9549 19.1333C39.6893 18.8809 39.4831 18.5589 39.3362 18.1675C39.1892 17.7708 39.1158 17.2945 39.1158 16.7382V11.3378H41.3536V16.7536C41.3536 17.0318 41.3874 17.2636 41.4553 17.449C41.5287 17.6344 41.6276 17.7863 41.7519 17.9048C41.8819 18.0181 42.0317 18.1006 42.2012 18.1521C42.3763 18.1984 42.5628 18.2216 42.7606 18.2216C43.3031 18.2216 43.7297 18.1237 44.0406 17.928C44.3569 17.7271 44.5831 17.4592 44.7187 17.1245C44.8543 16.7845 44.9221 16.4034 44.9221 15.981ZM53.5683 17.4104C53.5683 17.2352 53.5174 17.0781 53.4157 16.939C53.3141 16.8 53.1219 16.6738 52.8393 16.5605C52.5624 16.442 52.1556 16.3313 51.6188 16.2283C51.1441 16.1356 50.7062 16.0197 50.3049 15.8806C49.9037 15.7415 49.5589 15.5742 49.2708 15.3784C48.9826 15.1776 48.7566 14.9432 48.5927 14.6754C48.4344 14.4024 48.3553 14.0882 48.3553 13.7328C48.3553 13.3877 48.4373 13.0632 48.6012 12.7593C48.7651 12.4503 49.0024 12.1799 49.3132 11.9481C49.6239 11.7112 50.0026 11.5257 50.4491 11.3918C50.8954 11.2528 51.3983 11.1832 51.9578 11.1832C52.7377 11.1832 53.4073 11.2991 53.9667 11.5309C54.5318 11.7627 54.9641 12.082 55.2636 12.4889C55.5631 12.8907 55.7128 13.3439 55.7128 13.8487H53.4751C53.4751 13.6272 53.4186 13.4263 53.3056 13.2461C53.1982 13.0658 53.0314 12.9216 52.8054 12.8134C52.5794 12.7001 52.2941 12.6434 51.9493 12.6434C51.6386 12.6434 51.3758 12.6898 51.1611 12.7825C50.9519 12.8752 50.7937 12.9963 50.6863 13.1456C50.5789 13.295 50.5253 13.4598 50.5253 13.6401C50.5253 13.774 50.5536 13.895 50.6101 14.0032C50.6722 14.1062 50.7711 14.2015 50.9067 14.2891C51.0423 14.3766 51.2261 14.4565 51.4577 14.5286C51.6951 14.6007 51.9861 14.6702 52.3308 14.7372C53.0146 14.8608 53.6107 15.0256 54.1193 15.2316C54.6336 15.4325 55.0347 15.7003 55.3229 16.0351C55.6112 16.3699 55.7552 16.7974 55.7552 17.3176C55.7552 17.6885 55.6677 18.0285 55.4924 18.3374C55.3173 18.6414 55.0629 18.9067 54.7296 19.1333C54.3962 19.3599 53.9978 19.5376 53.5344 19.6664C53.0711 19.79 52.5483 19.8517 51.9663 19.8517C51.1243 19.8517 50.4123 19.7152 49.8302 19.4423C49.2482 19.1641 48.8074 18.8139 48.5079 18.3916C48.2084 17.9641 48.0587 17.5211 48.0587 17.0626H50.2032C50.2202 17.3872 50.3162 17.6472 50.4914 17.843C50.6666 18.0387 50.8869 18.1803 51.1526 18.2679C51.4238 18.3503 51.7092 18.3916 52.0087 18.3916C52.3477 18.3916 52.6331 18.3503 52.8648 18.2679C53.0964 18.1803 53.2717 18.0645 53.3903 17.9202C53.5089 17.7708 53.5683 17.601 53.5683 17.4104ZM61.4517 11.3378V12.8057H56.1963V11.3378H61.4517ZM57.6034 9.28264H59.8497V17.2867C59.8497 17.534 59.8864 17.7246 59.9598 17.8585C60.0333 17.9923 60.1434 18.0826 60.2904 18.1288C60.4373 18.1752 60.6126 18.1984 60.8159 18.1984C60.9629 18.1984 61.0984 18.1907 61.2228 18.1752C61.3472 18.1598 61.4517 18.1443 61.5364 18.1288L61.5449 19.6586C61.3584 19.7152 61.1466 19.7616 60.9092 19.7977C60.6776 19.8337 60.4147 19.8517 60.1209 19.8517C59.6179 19.8517 59.1772 19.7745 58.7986 19.62C58.4199 19.4603 58.1261 19.2054 57.9171 18.8552C57.7079 18.4997 57.6034 18.031 57.6034 17.449V9.28264ZM63.7831 8.44824H65.8004L69.1739 16.9159L72.5391 8.44824H74.5649L69.9792 19.6972H68.3603L63.7831 8.44824ZM62.7658 8.44824H64.7408L65.0968 16.2283V19.6972H62.7658V8.44824ZM73.5987 8.44824H75.5822V19.6972H73.2512V16.2283L73.5987 8.44824ZM81.5583 19.8517C80.8632 19.8517 80.2388 19.7487 79.6851 19.5427C79.1312 19.3366 78.6594 19.0508 78.2694 18.6852C77.8852 18.3143 77.5886 17.8842 77.3794 17.3949C77.1761 16.9004 77.0743 16.3699 77.0743 15.8034V15.4943C77.0743 14.8505 77.1761 14.2659 77.3794 13.7405C77.5829 13.21 77.8711 12.7542 78.2441 12.373C78.6171 11.9919 79.0634 11.6983 79.5833 11.4923C80.1032 11.2862 80.6768 11.1832 81.3041 11.1832C81.9538 11.1832 82.5274 11.2837 83.0247 11.4845C83.5219 11.6803 83.9373 11.9584 84.2707 12.3189C84.6042 12.6795 84.8556 13.1121 85.0252 13.6169C85.1947 14.1165 85.2794 14.6702 85.2794 15.278V16.1356H78.0914V14.7295H83.0756V14.5749C83.0643 14.2504 82.9964 13.9543 82.8722 13.6864C82.7478 13.4135 82.5557 13.1971 82.2958 13.0375C82.0358 12.8726 81.6996 12.7902 81.2871 12.7902C80.9537 12.7902 80.6627 12.8572 80.4139 12.9911C80.1711 13.1199 79.9676 13.3053 79.8037 13.5474C79.6454 13.7843 79.5268 14.0676 79.4477 14.3972C79.3686 14.7269 79.3291 15.0926 79.3291 15.4943V15.8034C79.3291 16.1536 79.3799 16.478 79.4816 16.7768C79.5889 17.0755 79.7443 17.3356 79.9478 17.5571C80.1569 17.7735 80.4056 17.9435 80.6937 18.0671C80.9876 18.1856 81.3209 18.2448 81.6939 18.2448C82.1629 18.2448 82.5868 18.1623 82.9654 17.9976C83.3497 17.8276 83.6831 17.5777 83.9656 17.2481L85.0929 18.3143C84.9008 18.5718 84.6409 18.819 84.3132 19.056C83.9911 19.2929 83.6011 19.4861 83.1434 19.6355C82.6857 19.7796 82.1573 19.8517 81.5583 19.8517Z" fill="#008593"/>
</g>
<line x1="100" y1="2.18557e-08" x2="100" y2="28" stroke="#D0D0D0"/>
<g opacity="0.7">
<path fill-rule="evenodd" clip-rule="evenodd" d="M126.88 14.6052C126.88 14.5218 126.833 14.4466 126.762 14.4147C126.69 14.3829 126.608 14.4006 126.553 14.4598C125.711 15.3726 123.488 17.7798 122.909 18.4064C122.82 18.5029 122.77 18.6337 122.77 18.77C122.77 19.0962 122.77 19.7545 122.77 20.4377C122.77 21.0253 122.987 21.5889 123.372 22.0044C123.757 22.42 124.28 22.6534 124.825 22.6534C124.825 22.6534 124.825 22.6534 124.825 22.6534C125.37 22.6534 125.893 22.42 126.278 22.0044C126.663 21.5889 126.88 21.0253 126.88 20.4377C126.88 18.4632 126.88 15.7188 126.88 14.6052ZM111.5 14.6052C111.5 14.5218 111.547 14.4466 111.618 14.4147C111.69 14.3829 111.772 14.4006 111.827 14.4598C112.669 15.3726 114.892 17.7798 115.471 18.4064C115.56 18.5029 115.61 18.6337 115.61 18.77C115.61 19.0962 115.61 19.7545 115.61 20.4377C115.61 21.0253 115.393 21.5889 115.008 22.0044C114.623 22.42 114.1 22.6534 113.555 22.6534C113.555 22.6534 113.555 22.6534 113.555 22.6534C113.01 22.6534 112.487 22.42 112.102 22.0044C111.716 21.5889 111.5 21.0253 111.5 20.4377C111.5 18.4632 111.5 15.7188 111.5 14.6052ZM112.067 13.9412C111.311 13.1255 111.311 11.803 112.067 10.9873C112.067 10.9873 112.067 10.9873 112.067 10.9873C112.824 10.1716 114.05 10.1716 114.807 10.9873C116.508 12.8217 119.188 15.7125 119.188 15.7125C119.188 15.7125 121.877 12.8131 123.581 10.9759C124.336 10.1608 125.562 10.1608 126.318 10.9759C126.318 10.9759 126.318 10.976 126.318 10.976C127.073 11.791 127.073 13.1123 126.318 13.9272C124.764 15.6031 122.238 18.3267 120.647 20.0428C120.259 20.4605 119.734 20.6952 119.186 20.6952C118.638 20.6952 118.113 20.4605 117.725 20.0428C116.137 18.3301 113.619 15.6143 112.067 13.9412ZM113.564 5.3457C114.702 5.3457 115.626 6.34205 115.626 7.56926C115.626 8.79646 114.702 9.79281 113.564 9.79281C112.426 9.79281 111.503 8.79646 111.503 7.56926C111.503 6.34205 112.426 5.3457 113.564 5.3457ZM124.823 5.3457C125.961 5.3457 126.885 6.34205 126.885 7.56926C126.885 8.79646 125.961 9.79281 124.823 9.79281C123.685 9.79281 122.761 8.79646 122.761 7.56926C122.761 6.34205 123.685 5.3457 124.823 5.3457Z" fill="#5A7676"/>
<path d="M143.096 15.9942H145.208C145.141 16.7999 144.915 17.5182 144.532 18.1492C144.149 18.7746 143.611 19.2676 142.918 19.6282C142.225 19.9887 141.383 20.169 140.391 20.169C139.631 20.169 138.946 20.0338 138.338 19.7634C137.729 19.4873 137.208 19.0986 136.774 18.5971C136.34 18.0901 136.008 17.4788 135.777 16.7633C135.552 16.0477 135.439 15.2477 135.439 14.3632V13.3406C135.439 12.4561 135.554 11.656 135.785 10.9405C136.022 10.225 136.36 9.61369 136.8 9.10663C137.239 8.59394 137.766 8.20237 138.38 7.93194C139 7.66151 139.695 7.52629 140.467 7.52629C141.448 7.52629 142.276 7.70658 142.952 8.06716C143.628 8.42773 144.152 8.92634 144.524 9.56299C144.901 10.1996 145.132 10.9292 145.217 11.7518H143.104C143.048 11.2222 142.924 10.7687 142.732 10.3912C142.546 10.0137 142.27 9.72637 141.904 9.52918C141.538 9.32636 141.059 9.22495 140.467 9.22495C139.983 9.22495 139.56 9.31509 139.2 9.49538C138.839 9.67567 138.538 9.94047 138.295 10.2898C138.053 10.6391 137.87 11.0701 137.746 11.5828C137.628 12.0898 137.569 12.6701 137.569 13.3237V14.3632C137.569 14.9829 137.622 15.5463 137.729 16.0534C137.842 16.5548 138.011 16.9858 138.236 17.3464C138.467 17.707 138.76 17.9858 139.115 18.183C139.47 18.3802 139.895 18.4788 140.391 18.4788C140.994 18.4788 141.481 18.383 141.853 18.1915C142.231 17.9999 142.515 17.721 142.707 17.3548C142.904 16.983 143.034 16.5294 143.096 15.9942ZM146.197 15.5294V15.335C146.197 14.6759 146.293 14.0646 146.485 13.5012C146.676 12.9321 146.952 12.4392 147.313 12.0222C147.679 11.5997 148.124 11.2729 148.648 11.0419C149.178 10.8053 149.775 10.687 150.44 10.687C151.11 10.687 151.707 10.8053 152.231 11.0419C152.761 11.2729 153.209 11.5997 153.575 12.0222C153.941 12.4392 154.22 12.9321 154.412 13.5012C154.603 14.0646 154.699 14.6759 154.699 15.335V15.5294C154.699 16.1886 154.603 16.7999 154.412 17.3633C154.22 17.9267 153.941 18.4197 153.575 18.8422C153.209 19.2591 152.764 19.5859 152.24 19.8225C151.716 20.0535 151.122 20.169 150.457 20.169C149.786 20.169 149.186 20.0535 148.657 19.8225C148.133 19.5859 147.688 19.2591 147.321 18.8422C146.955 18.4197 146.676 17.9267 146.485 17.3633C146.293 16.7999 146.197 16.1886 146.197 15.5294ZM148.234 15.335V15.5294C148.234 15.9407 148.276 16.3294 148.361 16.6957C148.445 17.0619 148.578 17.383 148.758 17.6591C148.938 17.9351 149.169 18.152 149.451 18.3098C149.733 18.4675 150.068 18.5464 150.457 18.5464C150.834 18.5464 151.161 18.4675 151.437 18.3098C151.719 18.152 151.95 17.9351 152.13 17.6591C152.31 17.383 152.443 17.0619 152.527 16.6957C152.617 16.3294 152.662 15.9407 152.662 15.5294V15.335C152.662 14.9294 152.617 14.5463 152.527 14.1857C152.443 13.8195 152.307 13.4955 152.122 13.2138C151.941 12.9321 151.71 12.7124 151.429 12.5546C151.153 12.3913 150.823 12.3096 150.44 12.3096C150.057 12.3096 149.724 12.3913 149.443 12.5546C149.167 12.7124 148.938 12.9321 148.758 13.2138C148.578 13.4955 148.445 13.8195 148.361 14.1857C148.276 14.5463 148.234 14.9294 148.234 15.335ZM158.08 12.8082V20H156.043V10.856H157.962L158.08 12.8082ZM157.716 15.09L157.057 15.0815C157.063 14.4336 157.153 13.8392 157.328 13.2983C157.508 12.7575 157.756 12.2927 158.071 11.9039C158.393 11.5152 158.776 11.2166 159.221 11.0081C159.666 10.794 160.162 10.687 160.708 10.687C161.148 10.687 161.545 10.7489 161.9 10.8729C162.26 10.9912 162.567 11.1856 162.821 11.456C163.08 11.7264 163.277 12.0786 163.412 12.5124C163.548 12.9406 163.615 13.4674 163.615 14.0927V20H161.57V14.0843C161.57 13.6448 161.505 13.2983 161.376 13.0448C161.252 12.7856 161.069 12.6025 160.826 12.4955C160.59 12.3828 160.294 12.3265 159.939 12.3265C159.59 12.3265 159.277 12.3997 159.001 12.5462C158.725 12.6927 158.491 12.8927 158.3 13.1462C158.114 13.3998 157.97 13.6927 157.869 14.0251C157.767 14.3575 157.716 14.7125 157.716 15.09ZM169.54 10.856V12.3434H164.385V10.856H169.54ZM165.872 8.61647H167.909V17.4731C167.909 17.7548 167.948 17.9718 168.027 18.1239C168.112 18.2704 168.227 18.369 168.374 18.4197C168.52 18.4704 168.692 18.4957 168.889 18.4957C169.03 18.4957 169.165 18.4873 169.295 18.4704C169.424 18.4535 169.529 18.4366 169.607 18.4197L169.616 19.9746C169.447 20.0254 169.25 20.0704 169.024 20.1099C168.805 20.1493 168.551 20.169 168.264 20.169C167.796 20.169 167.382 20.0873 167.021 19.9239C166.661 19.7549 166.379 19.4817 166.176 19.1042C165.973 18.7267 165.872 18.2253 165.872 17.5999V8.61647ZM172.811 12.5969V20H170.774V10.856H172.718L172.811 12.5969ZM175.608 10.7968L175.591 12.6899C175.467 12.6673 175.332 12.6504 175.185 12.6392C175.045 12.6279 174.904 12.6223 174.763 12.6223C174.414 12.6223 174.107 12.673 173.842 12.7744C173.577 12.8702 173.354 13.011 173.174 13.1969C172.999 13.3772 172.864 13.5969 172.768 13.8561C172.673 14.1153 172.616 14.4054 172.599 14.7266L172.135 14.7604C172.135 14.1857 172.191 13.6533 172.304 13.1631C172.416 12.673 172.585 12.242 172.811 11.8701C173.042 11.4983 173.329 11.2081 173.673 10.9997C174.022 10.7912 174.425 10.687 174.881 10.687C175.005 10.687 175.138 10.6982 175.278 10.7208C175.425 10.7433 175.535 10.7687 175.608 10.7968ZM181.389 18.1661V13.8054C181.389 13.4786 181.33 13.1969 181.211 12.9603C181.093 12.7237 180.913 12.5406 180.67 12.411C180.434 12.2814 180.135 12.2166 179.775 12.2166C179.442 12.2166 179.155 12.2729 178.913 12.3856C178.67 12.4983 178.482 12.6504 178.346 12.842C178.211 13.0335 178.144 13.2505 178.144 13.4927H176.115C176.115 13.1321 176.203 12.7828 176.377 12.4448C176.552 12.1067 176.806 11.8053 177.138 11.5405C177.47 11.2757 177.868 11.0673 178.33 10.9152C178.792 10.763 179.31 10.687 179.885 10.687C180.572 10.687 181.18 10.8025 181.71 11.0335C182.245 11.2645 182.665 11.6138 182.969 12.0814C183.279 12.5434 183.434 13.1237 183.434 13.8223V17.8872C183.434 18.3042 183.462 18.6788 183.518 19.0112C183.58 19.338 183.668 19.6225 183.78 19.8648V20H181.693C181.597 19.7803 181.521 19.5014 181.465 19.1633C181.414 18.8197 181.389 18.4873 181.389 18.1661ZM181.685 14.4392L181.701 15.6984H180.239C179.862 15.6984 179.53 15.7351 179.242 15.8083C178.955 15.8759 178.715 15.9773 178.524 16.1125C178.332 16.2477 178.189 16.4111 178.093 16.6027C177.997 16.7942 177.949 17.0112 177.949 17.2534C177.949 17.4957 178.006 17.7182 178.118 17.921C178.231 18.1182 178.394 18.2732 178.608 18.3859C178.828 18.4985 179.093 18.5549 179.403 18.5549C179.82 18.5549 180.183 18.4704 180.493 18.3013C180.809 18.1267 181.056 17.9154 181.237 17.6675C181.417 17.414 181.513 17.1745 181.524 16.9492L182.183 17.8534C182.116 18.0844 182 18.3323 181.837 18.5971C181.673 18.8619 181.459 19.1155 181.194 19.3577C180.935 19.5944 180.623 19.7887 180.256 19.9408C179.896 20.093 179.479 20.169 179.006 20.169C178.408 20.169 177.876 20.0507 177.408 19.8141C176.941 19.5718 176.575 19.2479 176.31 18.8422C176.045 18.4309 175.913 17.9661 175.913 17.4478C175.913 16.9633 176.003 16.5351 176.183 16.1632C176.369 15.7858 176.639 15.4703 176.994 15.2167C177.355 14.9632 177.794 14.7716 178.313 14.6421C178.831 14.5068 179.423 14.4392 180.087 14.4392H181.685ZM188.953 18.5464C189.285 18.5464 189.584 18.4816 189.849 18.3521C190.119 18.2168 190.336 18.0309 190.499 17.7943C190.668 17.5577 190.761 17.2844 190.778 16.9745H192.697C192.685 17.5661 192.511 18.1042 192.173 18.5887C191.835 19.0732 191.387 19.4591 190.829 19.7465C190.271 20.0282 189.654 20.169 188.978 20.169C188.28 20.169 187.671 20.0507 187.153 19.8141C186.634 19.5718 186.203 19.2394 185.86 18.8169C185.516 18.3943 185.257 17.907 185.082 17.3548C184.913 16.8027 184.829 16.2111 184.829 15.5801V15.2843C184.829 14.6533 184.913 14.0617 185.082 13.5096C185.257 12.9518 185.516 12.4617 185.86 12.0391C186.203 11.6166 186.634 11.287 187.153 11.0504C187.671 10.8081 188.277 10.687 188.97 10.687C189.702 10.687 190.344 10.8335 190.897 11.1264C191.449 11.4138 191.882 11.8166 192.198 12.3349C192.519 12.8476 192.685 13.4448 192.697 14.1265H190.778C190.761 13.7885 190.677 13.4843 190.525 13.2138C190.378 12.9378 190.17 12.718 189.899 12.5546C189.635 12.3913 189.316 12.3096 188.944 12.3096C188.533 12.3096 188.192 12.3941 187.922 12.5631C187.651 12.7265 187.44 12.9518 187.288 13.2392C187.136 13.5209 187.026 13.8392 186.958 14.1941C186.896 14.5435 186.865 14.9069 186.865 15.2843V15.5801C186.865 15.9576 186.896 16.3238 186.958 16.6787C187.02 17.0337 187.127 17.352 187.28 17.6337C187.437 17.9098 187.651 18.1323 187.922 18.3013C188.192 18.4647 188.536 18.5464 188.953 18.5464ZM198.106 10.856V12.3434H192.95V10.856H198.106ZM194.438 8.61647H196.475V17.4731C196.475 17.7548 196.514 17.9718 196.593 18.1239C196.677 18.2704 196.793 18.369 196.939 18.4197C197.086 18.4704 197.258 18.4957 197.455 18.4957C197.596 18.4957 197.731 18.4873 197.861 18.4704C197.99 18.4535 198.094 18.4366 198.173 18.4197L198.182 19.9746C198.013 20.0254 197.815 20.0704 197.59 20.1099C197.37 20.1493 197.117 20.169 196.83 20.169C196.362 20.169 195.948 20.0873 195.587 19.9239C195.227 19.7549 194.945 19.4817 194.742 19.1042C194.539 18.7267 194.438 18.2253 194.438 17.5999V8.61647Z" fill="#5A7676"/>
</g>
<defs>
<clipPath id="clip0_7856_66">
<rect width="87.5" height="18.2294" fill="white" transform="translate(0 4.88525)"/>
</clipPath>
</defs>
</svg>
