<svg width="271" height="242" viewBox="0 0 271 242" fill="none" xmlns="http://www.w3.org/2000/svg">
<rect width="135.798" height="135.798" rx="12" transform="matrix(0.865254 0.501334 -0.865254 0.501334 135.5 86.8394)" fill="url(#paint0_linear_7595_3076)"/>
<rect width="135.798" height="135.798" rx="12" transform="matrix(0.865254 0.501334 -0.865254 0.501334 135.5 86.8394)" fill="url(#paint1_linear_7595_3076)"/>
<g filter="url(#filter0_d_7595_3076)">
<rect width="135.798" height="135.798" rx="12" transform="matrix(0.865254 0.501334 -0.865254 0.501334 135.5 42.998)" fill="url(#paint2_linear_7595_3076)" shape-rendering="crispEdges"/>
<rect width="135.798" height="135.798" rx="12" transform="matrix(0.865254 0.501334 -0.865254 0.501334 135.5 42.998)" fill="url(#paint3_linear_7595_3076)"/>
</g>
<g filter="url(#filter1_d_7595_3076)">
<rect width="135.798" height="135.798" rx="12" transform="matrix(0.865254 0.501334 -0.865254 0.501334 135.5 0)" fill="url(#paint4_linear_7595_3076)" shape-rendering="crispEdges"/>
</g>
<g style="mix-blend-mode:overlay">
<path d="M135.802 67.7126C130.955 64.9037 130.955 60.3937 135.802 57.5849C140.582 54.8156 148.434 54.7761 153.282 57.5849C158.061 60.3542 158.061 64.9433 153.282 67.7126C148.434 70.5214 140.582 70.4818 135.802 67.7126ZM139.694 72.4995C144.747 75.427 144.747 80.2534 139.694 83.181L136.895 84.803C135.051 85.8711 132.115 85.8316 130.34 84.803L106.306 70.8774C104.463 69.8093 104.463 68.1477 106.306 67.0796L109.105 65.4576C114.158 62.53 122.42 62.4905 127.472 65.418L128.633 66.0906C129.384 67.3961 130.75 68.5829 132.525 69.6115C134.3 70.6401 136.28 71.3917 138.534 71.8269L139.694 72.4995Z" fill="white"/>
</g>
<defs>
<filter id="filter0_d_7595_3076" x="-5.14742" y="42.998" width="281.295" height="201.815" filterUnits="userSpaceOnUse" color-interpolation-filters="sRGB">
<feFlood flood-opacity="0" result="BackgroundImageFix"/>
<feColorMatrix in="SourceAlpha" type="matrix" values="0 0 0 0 0 0 0 0 0 0 0 0 0 0 0 0 0 0 127 0" result="hardAlpha"/>
<feOffset dy="42.5071"/>
<feGaussianBlur stdDeviation="11.5737"/>
<feComposite in2="hardAlpha" operator="out"/>
<feColorMatrix type="matrix" values="0 0 0 0 0 0 0 0 0 0 0 0 0 0 0 0 0 0 0.25 0"/>
<feBlend mode="normal" in2="BackgroundImageFix" result="effect1_dropShadow_7595_3076"/>
<feBlend mode="normal" in="SourceGraphic" in2="effect1_dropShadow_7595_3076" result="shape"/>
</filter>
<filter id="filter1_d_7595_3076" x="0.934851" y="3.52417" width="269.13" height="194.767" filterUnits="userSpaceOnUse" color-interpolation-filters="sRGB">
<feFlood flood-opacity="0" result="BackgroundImageFix"/>
<feColorMatrix in="SourceAlpha" type="matrix" values="0 0 0 0 0 0 0 0 0 0 0 0 0 0 0 0 0 0 127 0" result="hardAlpha"/>
<feOffset dy="42.5071"/>
<feGaussianBlur stdDeviation="11.5737"/>
<feComposite in2="hardAlpha" operator="out"/>
<feColorMatrix type="matrix" values="0 0 0 0 0 0 0 0 0 0 0 0 0 0 0 0 0 0 0.25 0"/>
<feBlend mode="normal" in2="BackgroundImageFix" result="effect1_dropShadow_7595_3076"/>
<feBlend mode="normal" in="SourceGraphic" in2="effect1_dropShadow_7595_3076" result="shape"/>
</filter>
<linearGradient id="paint0_linear_7595_3076" x1="0" y1="0" x2="135.798" y2="135.798" gradientUnits="userSpaceOnUse">
<stop stop-color="#EAEAEA" stop-opacity="0.22"/>
<stop offset="0.0001" stop-color="#A2A2A2" stop-opacity="0.22"/>
<stop offset="1" stop-color="white" stop-opacity="0"/>
</linearGradient>
<linearGradient id="paint1_linear_7595_3076" x1="0" y1="0" x2="135.798" y2="135.798" gradientUnits="userSpaceOnUse">
<stop stop-color="white" stop-opacity="0.22"/>
<stop offset="1" stop-color="white" stop-opacity="0.02"/>
</linearGradient>
<linearGradient id="paint2_linear_7595_3076" x1="0" y1="0" x2="135.798" y2="135.798" gradientUnits="userSpaceOnUse">
<stop stop-color="#C4C4C4" stop-opacity="0.22"/>
<stop offset="0.841856" stop-color="#C4C4C4" stop-opacity="0"/>
</linearGradient>
<linearGradient id="paint3_linear_7595_3076" x1="0" y1="0" x2="135.798" y2="135.798" gradientUnits="userSpaceOnUse">
<stop stop-color="#C4C4C4" stop-opacity="0.22"/>
<stop offset="0.841856" stop-color="#C4C4C4" stop-opacity="0"/>
</linearGradient>
<linearGradient id="paint4_linear_7595_3076" x1="0" y1="0" x2="135.798" y2="135.798" gradientUnits="userSpaceOnUse">
<stop stop-color="#C4C4C4" stop-opacity="0.22"/>
<stop offset="0.841856" stop-color="#C4C4C4" stop-opacity="0"/>
</linearGradient>
</defs>
</svg>
