<svg width="48" height="48" viewBox="0 0 48 48" fill="none" xmlns="http://www.w3.org/2000/svg">
<path d="M11.2725 6.31441C10.7828 6.87156 9.43486 8.46576 8.2553 10.3707C7.65211 11.3448 7.11467 12.3658 6.75519 13.3443C6.3905 14.337 6.24656 15.1855 6.3189 15.8532L6.32039 15.867L6.32163 15.8809C6.38205 16.5551 6.72778 17.1598 7.2559 17.5418L7.25951 17.5444C7.45118 17.684 7.67311 17.7796 7.96075 17.8013L7.3478 17.3698C6.81756 16.9966 6.49343 16.3993 6.46307 15.7571C6.39209 14.9483 6.62526 14.0974 6.90403 13.3702C7.20585 12.5828 7.63858 11.7469 8.12159 10.9346C9.07769 9.3267 10.3099 7.67942 11.3666 6.47354C11.3844 6.44484 11.3913 6.40402 11.3781 6.36475L11.3773 6.36264C11.3638 6.32234 11.336 6.3059 11.3196 6.30212L11.2725 6.31441ZM11.2725 6.31441C11.2803 6.3083 11.2877 6.30488 11.294 6.30298C11.3026 6.30038 11.3108 6.30009 11.3196 6.30211L11.2725 6.31441ZM21.0063 22.9737L21.0063 22.9738L21.0063 22.9737ZM21.0063 22.9737L21.0062 22.9737L21.0063 22.9737ZM19.7266 22.1913L19.7252 22.1936L19.7209 22.2006C18.6029 24.0365 17.3537 26.0877 16.4376 28.063C15.5462 29.9851 14.8393 32.0986 15.0717 34.0182C15.2018 35.4075 15.7134 36.7328 16.5499 37.8444L16.5641 37.8633L16.5788 37.8817C16.602 37.9105 16.6125 37.9587 16.5958 38.0035C16.5794 38.0476 16.5493 38.0615 16.5348 38.0639C16.5231 38.0659 16.5015 38.0637 16.4806 38.0402C15.6102 36.9103 15.0691 35.5486 14.9233 34.1122L14.9216 34.0948L14.9194 34.0774C14.7122 32.4219 15.1803 30.5141 16.1082 28.3986C17.0311 26.2944 18.3265 24.1615 19.6032 22.0635L19.6032 22.0635L19.6075 22.0563L19.6341 22.012L19.6372 22.0069L19.6544 21.9785C20.5319 20.5313 21.6186 18.7389 22.357 17.1657C22.7258 16.38 23.0506 15.5611 23.2002 14.8154C23.3283 14.1766 23.4409 13.0444 22.6409 12.2068L22.6391 12.205C21.8567 11.3886 20.8089 11.3664 20.0829 11.4853C19.3368 11.6076 18.5581 11.9288 17.8472 12.2857C16.4209 13.0017 14.8402 14.0857 13.5984 14.9374L13.5741 14.9541L13.5738 14.9543C11.9318 16.0809 10.5855 16.9957 9.4124 17.4798C8.89291 17.6942 8.48895 17.7916 8.16233 17.8045L8.81705 17.5154C10.4904 16.7766 12.0757 15.8473 13.5423 14.7465C15.4093 13.4676 17.2843 12.1958 19.0223 11.5728C19.874 11.2675 20.5882 11.1592 21.1774 11.2279C21.7282 11.2922 22.2441 11.5176 22.7422 12.0383L22.7423 12.0385C23.544 12.8763 23.7001 14 23.0885 15.8191C22.4645 17.6753 21.1829 19.7973 19.7282 22.1887C19.7276 22.1896 19.7271 22.1904 19.7266 22.1913ZM39.6566 20.7596C40.189 20.7596 40.706 20.9747 41.0922 21.3672L41.0931 21.3682C41.4791 21.7623 41.7008 22.3021 41.7008 22.8699C41.7008 23.4386 41.4787 23.9785 41.0927 24.372C41.0926 24.3721 41.0925 24.3722 41.0925 24.3723L25.1349 40.627L21.4557 41.3136L22.2374 37.6501L38.2201 21.3682C38.6064 20.9751 39.1237 20.7596 39.6566 20.7596Z" stroke="#0EB6B6" stroke-width="3"/>
</svg>
