<svg width="48" height="48" viewBox="0 0 48 48" fill="none" xmlns="http://www.w3.org/2000/svg">
<path fill-rule="evenodd" clip-rule="evenodd" d="M24 5.5C13.7827 5.5 5.5 13.7827 5.5 24C5.5 34.2173 13.7827 42.5 24 42.5C34.2173 42.5 42.5 34.2173 42.5 24C42.5 13.7827 34.2173 5.5 24 5.5ZM2.5 24C2.5 12.1259 12.1259 2.5 24 2.5C35.8741 2.5 45.5 12.1259 45.5 24C45.5 35.8741 35.8741 45.5 24 45.5C12.1259 45.5 2.5 35.8741 2.5 24ZM24 17.801C23.7621 18.154 23.469 18.6743 23.0327 19.4571L22.7706 19.9273C22.7511 19.9623 22.731 19.9987 22.7102 20.0365C22.4931 20.4311 22.1981 20.9672 21.7109 21.337C21.2148 21.7136 20.6165 21.8453 20.1887 21.9395C20.1481 21.9484 20.109 21.957 20.0717 21.9655L19.5626 22.0806C18.6323 22.2911 18.0525 22.4259 17.6629 22.5621C17.9038 22.924 18.3082 23.402 18.9641 24.1691L19.3111 24.5749C19.3367 24.6047 19.3633 24.6356 19.3907 24.6673C19.6862 25.0094 20.0793 25.4645 20.261 26.0488C20.4408 26.627 20.38 27.2252 20.3334 27.6824C20.3291 27.7251 20.3249 27.7666 20.321 27.8067L20.2685 28.3482C20.1748 29.3155 20.117 29.9412 20.1187 30.3838C20.5031 30.2476 21.0296 30.0084 21.8332 29.6384L22.3098 29.419C22.3449 29.4028 22.3816 29.3856 22.4199 29.3677C22.8156 29.1826 23.3769 28.9199 24 28.9199C24.6231 28.9199 25.1844 29.1826 25.5801 29.3677C25.6184 29.3856 25.6551 29.4028 25.6902 29.419L26.1668 29.6384C26.9704 30.0084 27.4969 30.2476 27.8813 30.3838C27.883 29.9412 27.8252 29.3155 27.7315 28.3482L27.679 27.8067C27.6751 27.7666 27.6709 27.7251 27.6666 27.6824C27.62 27.2252 27.5592 26.627 27.739 26.0488C27.9207 25.4645 28.3138 25.0094 28.6093 24.6673C28.6367 24.6356 28.6633 24.6047 28.6889 24.5749L29.0359 24.1691C29.6918 23.402 30.0962 22.924 30.3371 22.5621C29.9475 22.4259 29.3677 22.2911 28.4373 22.0806L27.9283 21.9655C27.891 21.957 27.8519 21.9484 27.8113 21.9395C27.3835 21.8453 26.7852 21.7136 26.2891 21.337C25.8019 20.9672 25.5069 20.4311 25.2898 20.0365C25.269 19.9987 25.2489 19.9623 25.2294 19.9273L24.9673 19.4571C24.531 18.6743 24.2379 18.154 24 17.801ZM28.3059 30.5004C28.3081 30.5005 28.3093 30.5006 28.3093 30.5006L28.3059 30.5004ZM19.6907 30.5006C19.6907 30.5006 19.6919 30.5005 19.6941 30.5004L19.6907 30.5006ZM21.7663 15.7697C22.1976 15.2064 22.9019 14.5 24 14.5C25.0981 14.5 25.8024 15.2064 26.2337 15.7697C26.6491 16.3121 27.0742 17.075 27.5366 17.9048C27.5536 17.9352 27.5706 17.9657 27.5877 17.9963L27.8498 18.4666C27.9234 18.5987 27.9804 18.7007 28.0309 18.7882C28.0649 18.847 28.0915 18.8915 28.113 18.9257C28.1466 18.935 28.1892 18.946 28.2437 18.9593C28.3377 18.9822 28.4471 19.007 28.5903 19.0394L29.0994 19.1546C29.1341 19.1625 29.1687 19.1703 29.2033 19.1781C30.0971 19.3802 30.9313 19.5688 31.5613 19.817C32.2439 20.086 33.0686 20.5709 33.3864 21.5928C33.6991 22.5983 33.3141 23.4664 32.9252 24.0842C32.5599 24.6646 31.9958 25.324 31.3831 26.0403L30.9689 26.5247C30.8714 26.6387 30.7963 26.7266 30.7324 26.8036C30.6801 26.8668 30.6439 26.9124 30.6181 26.9468C30.6214 27.0582 30.6357 27.215 30.665 27.5174L30.7274 28.1607C30.8204 29.1192 30.9053 29.994 30.8746 30.683C30.8427 31.3989 30.6738 32.3569 29.8228 33.0029C28.9474 33.6675 27.9693 33.5379 27.2756 33.3391C26.6263 33.1531 25.8462 32.7937 25.0097 32.4084C24.9773 32.3935 24.9447 32.3785 24.9121 32.3634L24.4355 32.144C24.3014 32.0823 24.1988 32.0351 24.1097 31.9958C24.0658 31.9764 24.0298 31.961 24 31.9488C23.9702 31.961 23.9342 31.9764 23.8903 31.9958C23.8012 32.0351 23.6986 32.0823 23.5645 32.144L23.0879 32.3634C23.0553 32.3785 23.0227 32.3935 22.9903 32.4084C22.1538 32.7937 21.3737 33.1531 20.7244 33.3391C20.0307 33.5379 19.0526 33.6675 18.1772 33.0029C17.3262 32.3569 17.1573 31.3989 17.1254 30.683C17.0947 29.994 17.1796 29.1192 17.2726 28.1607L17.335 27.5174C17.3643 27.215 17.3786 27.0582 17.3819 26.9468C17.3561 26.9124 17.3199 26.8668 17.2676 26.8036C17.2037 26.7266 17.1286 26.6387 17.0311 26.5247L16.6841 26.1188C16.6616 26.0926 16.6392 26.0664 16.6169 26.0402C16.0041 25.3239 15.4401 24.6646 15.0748 24.0842C14.6859 23.4664 14.3009 22.5983 14.6136 21.5928C14.9314 20.5709 15.7561 20.086 16.4387 19.817C17.0687 19.5688 17.9029 19.3802 18.7967 19.1781C18.8313 19.1703 18.8659 19.1625 18.9006 19.1546L19.4097 19.0394C19.5529 19.007 19.6623 18.9822 19.7563 18.9593C19.8108 18.946 19.8534 18.935 19.887 18.9257C19.9085 18.8915 19.9351 18.847 19.9691 18.7882C20.0196 18.7007 20.0766 18.5987 20.1502 18.4666L20.4123 17.9963C20.4294 17.9657 20.4464 17.9352 20.4634 17.9048C20.9258 17.075 21.3509 16.3121 21.7663 15.7697Z" fill="#0EB6B6"/>
</svg>
