<svg width="48" height="48" viewBox="0 0 48 48" fill="none" xmlns="http://www.w3.org/2000/svg">
<path fill-rule="evenodd" clip-rule="evenodd" d="M31.2693 4.24866C31.9235 2.58378 34.2754 2.58378 34.9296 4.24866L35.7856 6.42708L37.9549 7.2858C39.6136 7.94241 39.6137 10.2943 37.9549 10.9509L35.7856 11.8096L34.9296 13.988C34.2754 15.6529 31.9235 15.6529 31.2693 13.988L30.4134 11.8096L28.2441 10.9509C26.5853 10.2943 26.5853 7.94242 28.244 7.2858L30.4134 6.42708L31.2693 4.24866ZM33.0995 5.05978L33.9289 7.17067C34.1282 7.67782 34.5287 8.08053 35.0363 8.28145L37.1504 9.11834L35.0363 9.95523C34.5287 10.1562 34.1282 10.5589 33.9289 11.066L33.0995 13.1769L32.27 11.066C32.0707 10.5589 31.6702 10.1562 31.1627 9.95523L29.0485 9.11834L31.1627 8.28145C31.6702 8.08054 32.0707 7.67782 32.27 7.17067L33.0995 5.05978Z" fill="#0EB6B6"/>
<path fill-rule="evenodd" clip-rule="evenodd" d="M6.62839 6.62839C9.46625 3.79054 14.0673 3.79054 16.9052 6.62839L41.3716 31.0948C44.2095 33.9327 44.2095 38.5337 41.3716 41.3716C38.5337 44.2095 33.9327 44.2095 31.0948 41.3716L6.62839 16.9052C3.79054 14.0673 3.79054 9.46625 6.62839 6.62839ZM14.7839 8.74971C13.1176 7.08343 10.416 7.08343 8.74971 8.74971C7.08343 10.416 7.08343 13.1176 8.74971 14.7839L11.9223 17.9564L17.9564 11.9223L14.7839 8.74971ZM33.2161 39.2503L14.0436 20.0777L20.0777 14.0436L39.2503 33.2161C40.9166 34.8824 40.9166 37.584 39.2503 39.2503C37.584 40.9166 34.8824 40.9166 33.2161 39.2503Z" fill="#0EB6B6"/>
<path fill-rule="evenodd" clip-rule="evenodd" d="M42.6639 17.8932C42.0097 16.2283 39.6578 16.2283 39.0036 17.8932L38.6946 18.6797L37.912 18.9895C36.2533 19.6461 36.2533 21.998 37.912 22.6546L38.6946 22.9644L39.0036 23.7509C39.6578 25.4158 42.0097 25.4158 42.6639 23.7509L42.973 22.9644L43.7555 22.6546C45.4143 21.998 45.4143 19.6461 43.7555 18.9895L42.973 18.6797L42.6639 17.8932ZM40.8338 18.7043L40.5513 19.4233C40.352 19.9305 39.9515 20.3332 39.4439 20.5341L38.7165 20.822L39.4439 21.11C39.9515 21.3109 40.352 21.7136 40.5513 22.2208L40.8338 22.9398L41.1163 22.2208C41.3156 21.7136 41.7161 21.3109 42.2237 21.11L42.951 20.822L42.2237 20.5341C41.7161 20.3332 41.3156 19.9305 41.1163 19.4233L40.8338 18.7043Z" fill="#0EB6B6"/>
<path fill-rule="evenodd" clip-rule="evenodd" d="M9.33567 30.2487C9.98987 28.5838 12.3418 28.5838 12.9959 30.2487L13.305 31.0352L14.0876 31.345C15.7463 32.0016 15.7463 34.3534 14.0876 35.0101L13.305 35.3198L12.9959 36.1064C12.3418 37.7713 9.98987 37.7713 9.33567 36.1064L9.02661 35.3198L8.24405 35.0101C6.58532 34.3534 6.58532 32.0016 8.24405 31.345L9.02661 31.0352L9.33567 30.2487ZM10.8833 31.7788L11.1658 31.0598L11.4483 31.7788C11.6476 32.2859 12.0481 32.6887 12.5557 32.8896L13.2831 33.1775L12.5557 33.4655C12.0481 33.6664 11.6476 34.0691 11.4483 34.5762L11.1658 35.2953L10.8833 34.5762C10.684 34.0691 10.2835 33.6664 9.77593 33.4655L9.04854 33.1775L9.77593 32.8896C10.2835 32.6887 10.684 32.2859 10.8833 31.7788Z" fill="#0EB6B6"/>
</svg>
