<svg width="48" height="48" viewBox="0 0 48 48" fill="none" xmlns="http://www.w3.org/2000/svg">
<path d="M27.2233 26.2537C28.5967 29.749 27.8726 33.8835 25.0534 36.7026L25.0534 36.7026C21.2618 40.4949 15.0891 40.4949 11.2976 36.7026L11.0324 36.9677L11.2976 36.7026C7.50527 32.9096 7.50533 26.7377 11.2976 22.9461L11.2976 22.946C14.1167 20.1262 18.2505 19.4028 21.7456 20.7762L19.0652 23.456C17.1366 23.1887 15.1074 23.7898 13.6245 25.2735C13.6245 25.2735 13.6244 25.2736 13.6244 25.2736L27.2233 26.2537ZM27.2233 26.2537L24.5428 28.9342C24.81 30.8633 24.2099 32.8925 22.7268 34.3751C20.2169 36.8858 16.1342 36.8858 13.6244 34.3751L27.2233 26.2537Z" fill="#0EB6B6" stroke="#031325" stroke-width="0.75"/>
<path d="M5.58306 42.4169L5.58309 42.4169C12.527 49.3615 23.8257 49.3615 30.7695 42.4169L30.7695 42.4169C36.7722 36.415 37.5832 27.1579 33.2056 20.2714L30.8092 22.6692C33.9426 28.2056 33.1555 35.3774 28.442 40.0902L5.58306 42.4169ZM5.58306 42.4169C-1.36069 35.4739 -1.36069 24.1736 5.58306 17.2306L5.58306 42.4169ZM7.9106 40.0902C7.91061 40.0902 7.91063 40.0902 7.91064 40.0902C13.5713 45.7516 22.7807 45.7516 28.442 40.0902L7.9106 40.0902ZM7.9106 40.0902C2.24923 34.4297 2.24926 25.2194 7.9106 19.5582C7.9106 19.5582 7.91061 19.5582 7.91062 19.5581M7.9106 40.0902L7.91062 19.5581M7.91062 19.5581C12.6226 14.8454 19.7952 14.0583 25.3315 17.191L27.728 14.7939C20.8423 10.4177 11.5851 11.2293 5.58306 17.2306L7.91062 19.5581Z" fill="#0EB6B6" stroke="#031325" stroke-width="0.75"/>
<path d="M47.9334 7.95357C47.7824 7.56029 47.4005 7.31795 46.9679 7.33764L40.3525 7.64795L40.6635 1.03332C40.6824 0.600011 40.44 0.219573 40.0469 0.0671356C39.6559 -0.0838019 39.1917 0.0248544 38.8731 0.341917L31.8138 7.40185L31.4567 15.0258L18.6229 27.8588C17.97 27.7108 17.2574 27.8859 16.7487 28.3946C15.9591 29.1842 15.9591 30.4629 16.7487 31.2525C17.5375 32.0421 18.817 32.0421 19.6065 31.2525C20.1145 30.7437 20.2904 30.0311 20.1424 29.3775L32.9755 16.5437L40.5987 16.1874L47.6587 9.12657C47.9765 8.80885 48.0844 8.34601 47.9334 7.95357Z" fill="#0EB6B6"/>
</svg>
