<svg width="142" height="191" viewBox="0 0 142 191" fill="none" xmlns="http://www.w3.org/2000/svg">
<path d="M71.0293 0C72.855 0 74.6063 0.856029 75.7241 2.30756L140.223 85.0446C141.639 86.8683 141.9 89.2875 140.894 91.3345C139.888 93.3816 137.801 94.6842 135.528 94.6842H93.0505V184.604C93.0505 187.88 90.3677 190.559 87.0887 190.559H54.8952C51.6163 190.559 48.9335 187.88 48.9335 184.604V94.7214H6.45594C4.18302 94.7214 2.05914 93.4188 1.09035 91.3717C0.121569 89.3247 0.345133 86.8683 1.76105 85.0818L66.3344 2.30756C67.4522 0.856029 69.2035 0 71.0293 0Z" fill="url(#paint0_linear_7122_9839)"/>
<defs>
<linearGradient id="paint0_linear_7122_9839" x1="7.42144" y1="5.39315" x2="170.271" y2="52.4624" gradientUnits="userSpaceOnUse">
<stop stop-color="#079584"/>
<stop offset="1" stop-color="#00A6B7"/>
</linearGradient>
</defs>
</svg>
