<svg width="88" height="20" viewBox="0 0 88 20" fill="none" xmlns="http://www.w3.org/2000/svg">
<g clip-path="url(#clip0_7538_204)">
<path fill-rule="evenodd" clip-rule="evenodd" d="M16.7219 10.0615C16.7219 9.97875 16.6711 9.90421 16.5934 9.87265C16.5156 9.84108 16.4261 9.85872 16.3668 9.91733C15.4505 10.8219 13.0339 13.2074 12.4049 13.8284C12.3079 13.9241 12.2535 14.0536 12.2535 14.1887C12.2535 14.5121 12.2535 15.1644 12.2535 15.8415C12.2535 16.4238 12.4889 16.9823 12.9077 17.394C13.3267 17.8059 13.895 18.0372 14.4874 18.0372C14.4871 18.0372 14.4876 18.0372 14.4874 18.0372C15.0799 18.0372 15.6486 17.8059 16.0676 17.394C16.4865 16.9823 16.7219 16.4238 16.7219 15.8415C16.7219 13.8847 16.7219 11.165 16.7219 10.0615ZM0 10.0615C0 9.97875 0.050736 9.90421 0.128506 9.87265C0.206276 9.84108 0.29573 9.85872 0.355102 9.91733C1.27145 10.8219 3.68805 13.2074 4.31703 13.8284C4.41397 13.9241 4.4684 14.0536 4.4684 14.1887C4.4684 14.5121 4.4684 15.1644 4.4684 15.8415C4.4684 16.4238 4.23304 16.9823 3.81411 17.394C3.39516 17.8059 2.82696 18.0372 2.23448 18.0372C2.2343 18.0372 2.23465 18.0372 2.23448 18.0372C1.64199 18.0372 1.07326 17.8059 0.654308 17.394C0.235376 16.9823 0 16.4238 0 15.8415C0 13.8847 0 11.165 0 10.0615ZM0.616795 9.40337C-0.205591 8.59503 -0.205591 7.28446 0.616795 6.47613C0.61676 6.47614 0.61683 6.4761 0.616795 6.47613C1.43919 5.66779 2.77262 5.66772 3.59501 6.47606C5.44454 8.29396 8.35913 11.1588 8.35913 11.1588C8.35913 11.1588 11.2823 8.2855 13.1348 6.46477C13.9565 5.65707 15.2887 5.65707 16.1105 6.46477C16.1105 6.46472 16.1105 6.46481 16.1105 6.46477C16.9321 7.27238 16.9323 8.58193 16.1106 9.38956C14.421 11.0503 11.6749 13.7494 9.9448 15.4501C9.52361 15.864 8.95235 16.0966 8.35669 16.0966C7.76104 16.0966 7.18979 15.864 6.7686 15.4501C5.04184 13.7528 2.30366 11.0614 0.616795 9.40337ZM2.2446 0.885254C3.48193 0.885254 4.48646 1.87263 4.48646 3.0888C4.48646 4.30496 3.48193 5.29234 2.2446 5.29234C1.00729 5.29234 0.00274535 4.30496 0.00274535 3.0888C0.00274535 1.87263 1.00729 0.885254 2.2446 0.885254ZM14.4851 0.885254C15.7225 0.885254 16.727 1.87263 16.727 3.0888C16.727 4.30496 15.7225 5.29234 14.4851 5.29234C13.2479 5.29234 12.2433 4.30496 12.2433 3.0888C12.2433 1.87263 13.2479 0.885254 14.4851 0.885254Z" fill="#0EB6B6"/>
<path d="M28.9943 4.44824V15.6972H26.6718V4.44824H28.9943ZM32.8257 4.44824V6.12477H22.8828V4.44824H32.8257ZM35.5046 9.04519V15.6972H33.2667V7.33775H35.3858L35.5046 9.04519ZM38.2932 7.28367L38.2593 9.18426C38.1351 9.16365 37.9937 9.1482 37.8356 9.1379C37.6829 9.1276 37.5388 9.12245 37.4032 9.12245C37.0586 9.12245 36.7562 9.16622 36.4962 9.25379C36.2363 9.3362 36.0187 9.45724 35.8436 9.61691C35.6741 9.77658 35.5441 9.9723 35.4537 10.2041C35.3632 10.4307 35.3123 10.6882 35.3011 10.9767L34.8179 10.9226C34.8179 10.3921 34.8772 9.90019 34.9959 9.44693C35.1146 8.99368 35.2869 8.59708 35.5129 8.25714C35.7391 7.9172 36.0216 7.65451 36.3606 7.46908C36.7053 7.27852 37.1009 7.18322 37.5473 7.18322C37.6717 7.18322 37.8044 7.19354 37.9457 7.21413C38.0926 7.22958 38.2084 7.25276 38.2932 7.28367ZM44.6339 13.7117V7.33775H46.8886V15.6972H44.7696L44.6339 13.7117ZM44.9221 11.981L45.6172 11.9656C45.6172 12.527 45.5493 13.0446 45.4137 13.5185C45.2781 13.9923 45.0662 14.4044 44.7779 14.7547C44.4954 15.0998 44.1366 15.3701 43.7014 15.5659C43.2663 15.7565 42.7522 15.8517 42.1588 15.8517C41.7067 15.8517 41.2942 15.7951 40.9212 15.6817C40.5483 15.5634 40.2262 15.3805 39.9549 15.1333C39.6893 14.8809 39.4831 14.5589 39.3362 14.1675C39.1892 13.7708 39.1158 13.2945 39.1158 12.7382V7.33775H41.3536V12.7536C41.3536 13.0318 41.3874 13.2636 41.4553 13.449C41.5287 13.6344 41.6276 13.7863 41.7519 13.9048C41.8819 14.0181 42.0317 14.1006 42.2012 14.1521C42.3763 14.1984 42.5628 14.2216 42.7606 14.2216C43.3031 14.2216 43.7297 14.1237 44.0406 13.928C44.3569 13.7271 44.5831 13.4592 44.7187 13.1245C44.8543 12.7845 44.9221 12.4034 44.9221 11.981ZM53.5683 13.4104C53.5683 13.2352 53.5174 13.0781 53.4157 12.939C53.3141 12.8 53.1219 12.6738 52.8393 12.5605C52.5624 12.442 52.1556 12.3313 51.6188 12.2283C51.1441 12.1356 50.7062 12.0197 50.3049 11.8806C49.9037 11.7415 49.5589 11.5742 49.2708 11.3784C48.9826 11.1776 48.7566 10.9432 48.5927 10.6754C48.4344 10.4024 48.3553 10.0882 48.3553 9.73279C48.3553 9.38771 48.4373 9.06321 48.6012 8.75933C48.7651 8.45028 49.0024 8.17987 49.3132 7.9481C49.6239 7.71117 50.0026 7.52574 50.4491 7.39183C50.8954 7.25276 51.3983 7.18322 51.9578 7.18322C52.7377 7.18322 53.4073 7.29912 53.9667 7.53089C54.5318 7.76268 54.9641 8.08202 55.2636 8.48892C55.5631 8.89067 55.7128 9.34392 55.7128 9.84869H53.4751C53.4751 9.62721 53.4186 9.42633 53.3056 9.24607C53.1982 9.06579 53.0314 8.92157 52.8054 8.8134C52.5794 8.7001 52.2941 8.64344 51.9493 8.64344C51.6386 8.64344 51.3758 8.6898 51.1611 8.7825C50.9519 8.87521 50.7937 8.99625 50.6863 9.14562C50.5789 9.29499 50.5253 9.45982 50.5253 9.64008C50.5253 9.774 50.5536 9.89504 50.6101 10.0032C50.6722 10.1062 50.7711 10.2015 50.9067 10.2891C51.0423 10.3766 51.2261 10.4565 51.4577 10.5286C51.6951 10.6007 51.9861 10.6702 52.3308 10.7372C53.0146 10.8608 53.6107 11.0256 54.1193 11.2316C54.6336 11.4325 55.0347 11.7003 55.3229 12.0351C55.6112 12.3699 55.7552 12.7974 55.7552 13.3176C55.7552 13.6885 55.6677 14.0285 55.4924 14.3374C55.3173 14.6414 55.0629 14.9067 54.7296 15.1333C54.3962 15.3599 53.9978 15.5376 53.5344 15.6664C53.0711 15.79 52.5483 15.8517 51.9663 15.8517C51.1243 15.8517 50.4123 15.7152 49.8302 15.4423C49.2482 15.1641 48.8074 14.8139 48.5079 14.3916C48.2084 13.9641 48.0587 13.5211 48.0587 13.0626H50.2032C50.2202 13.3872 50.3162 13.6472 50.4914 13.843C50.6666 14.0387 50.8869 14.1803 51.1526 14.2679C51.4238 14.3503 51.7092 14.3916 52.0087 14.3916C52.3477 14.3916 52.6331 14.3503 52.8648 14.2679C53.0964 14.1803 53.2717 14.0645 53.3903 13.9202C53.5089 13.7708 53.5683 13.601 53.5683 13.4104ZM61.4517 7.33775V8.80568H56.1963V7.33775H61.4517ZM57.6034 5.28264H59.8497V13.2867C59.8497 13.534 59.8864 13.7246 59.9598 13.8585C60.0333 13.9923 60.1434 14.0826 60.2904 14.1288C60.4373 14.1752 60.6126 14.1984 60.8159 14.1984C60.9629 14.1984 61.0984 14.1907 61.2228 14.1752C61.3472 14.1598 61.4517 14.1443 61.5364 14.1288L61.5449 15.6586C61.3584 15.7152 61.1466 15.7616 60.9092 15.7977C60.6776 15.8337 60.4147 15.8517 60.1209 15.8517C59.6179 15.8517 59.1772 15.7745 58.7986 15.62C58.4199 15.4603 58.1261 15.2054 57.9171 14.8552C57.7079 14.4997 57.6034 14.031 57.6034 13.449V5.28264ZM63.7831 4.44824H65.8004L69.1739 12.9159L72.5391 4.44824H74.5649L69.9792 15.6972H68.3603L63.7831 4.44824ZM62.7658 4.44824H64.7408L65.0968 12.2283V15.6972H62.7658V4.44824ZM73.5987 4.44824H75.5822V15.6972H73.2512V12.2283L73.5987 4.44824ZM81.5583 15.8517C80.8632 15.8517 80.2388 15.7487 79.6851 15.5427C79.1312 15.3366 78.6594 15.0508 78.2694 14.6852C77.8852 14.3143 77.5886 13.8842 77.3794 13.3949C77.1761 12.9004 77.0743 12.3699 77.0743 11.8034V11.4943C77.0743 10.8505 77.1761 10.2659 77.3794 9.74053C77.5829 9.21001 77.8711 8.75418 78.2441 8.37302C78.6171 7.99188 79.0634 7.6983 79.5833 7.49227C80.1032 7.28624 80.6768 7.18322 81.3041 7.18322C81.9538 7.18322 82.5274 7.28367 83.0247 7.48455C83.5219 7.68026 83.9373 7.9584 84.2707 8.31894C84.6042 8.6795 84.8556 9.11215 85.0252 9.61691C85.1947 10.1165 85.2794 10.6702 85.2794 11.278V12.1356H78.0914V10.7295H83.0756V10.5749C83.0643 10.2504 82.9964 9.95428 82.8722 9.68644C82.7478 9.41346 82.5557 9.19713 82.2958 9.03746C82.0358 8.87264 81.6996 8.79023 81.2871 8.79023C80.9537 8.79023 80.6627 8.85719 80.4139 8.9911C80.1711 9.11987 79.9676 9.30529 79.8037 9.54738C79.6454 9.7843 79.5268 10.0676 79.4477 10.3972C79.3686 10.7269 79.3291 11.0926 79.3291 11.4943V11.8034C79.3291 12.1536 79.3799 12.478 79.4816 12.7768C79.5889 13.0755 79.7443 13.3356 79.9478 13.5571C80.1569 13.7735 80.4056 13.9435 80.6937 14.0671C80.9876 14.1856 81.3209 14.2448 81.6939 14.2448C82.1629 14.2448 82.5868 14.1623 82.9654 13.9976C83.3497 13.8276 83.6831 13.5777 83.9656 13.2481L85.0929 14.3143C84.9008 14.5718 84.6409 14.819 84.3132 15.056C83.9911 15.2929 83.6011 15.4861 83.1434 15.6355C82.6857 15.7796 82.1573 15.8517 81.5583 15.8517Z" fill="#0EB6B6"/>
</g>
<defs>
<clipPath id="clip0_7538_204">
<rect width="87.5" height="18.2294" fill="white" transform="translate(0 0.885254)"/>
</clipPath>
</defs>
</svg>
